<?xml version="1.0" encoding="UTF-8" ?>
<!DOCTYPE svg PUBLIC "-//W3C//DTD SVG 1.1//EN" "http://www.w3.org/Graphics/SVG/1.1/DTD/svg11.dtd">
<svg width="1008pt" height="992pt" viewBox="0 0 1008 992" version="1.1" xmlns="http://www.w3.org/2000/svg">
<path fill="#fcfdfe" d=" M 0.00 0.00 L 64.33 0.00 C 50.43 0.97 36.87 6.20 25.99 14.93 C 11.04 26.58 1.58 44.72 0.00 63.56 L 0.00 0.00 Z" />
<path fill="#0472b0" d=" M 64.33 0.00 L 943.62 0.00 C 957.77 0.96 971.57 6.38 982.55 15.37 C 997.38 27.20 1006.78 45.48 1008.00 64.40 L 1008.00 927.65 C 1006.75 946.77 997.14 965.20 982.05 977.04 C 971.17 985.78 957.58 991.02 943.66 992.00 L 64.42 992.00 C 50.24 991.03 36.41 985.62 25.42 976.61 C 10.62 964.76 1.22 946.51 0.00 927.61 L 0.00 63.56 C 1.58 44.72 11.04 26.58 25.99 14.93 C 36.87 6.20 50.43 0.97 64.33 0.00 Z" />
<path fill="#fcfdfe" d=" M 943.62 0.00 L 1008.00 0.00 L 1008.00 64.40 C 1006.78 45.48 997.38 27.20 982.55 15.37 C 971.57 6.38 957.77 0.96 943.62 0.00 Z" />
<path fill="#fcfdfe" d=" M 66.25 20.41 C 357.18 20.30 648.11 20.41 939.04 20.35 C 954.42 20.23 969.65 28.01 978.50 40.60 C 984.87 49.32 988.04 60.23 987.63 71.00 C 987.61 354.33 987.62 637.67 987.63 921.01 C 987.98 930.36 985.63 939.81 980.84 947.87 C 972.53 962.12 956.53 971.45 940.03 971.64 C 649.37 971.64 358.70 971.63 68.04 971.64 C 58.19 971.48 48.39 968.22 40.45 962.39 C 28.19 953.72 20.54 938.95 20.38 923.96 C 20.38 638.62 20.38 353.28 20.38 67.94 C 20.57 52.92 28.27 38.18 40.56 29.53 C 48.00 24.10 57.06 20.93 66.25 20.41 Z" />
<path fill="#0472b0" d=" M 413.27 93.25 C 415.49 92.35 417.57 91.02 419.92 90.49 C 423.65 90.89 427.26 92.03 430.96 92.66 C 425.59 110.28 419.71 127.76 414.29 145.36 C 413.07 148.89 417.65 149.36 420.00 148.61 C 424.47 146.74 427.81 142.92 432.35 141.13 C 443.39 188.59 440.24 237.70 443.50 285.96 C 444.13 298.60 446.16 311.10 447.88 323.62 C 462.89 324.52 477.96 324.11 493.00 324.20 C 554.68 324.55 616.35 324.66 678.03 324.91 C 688.35 324.86 698.71 324.51 709.01 325.31 C 744.51 325.26 780.00 325.49 815.50 325.57 C 814.66 309.97 817.20 294.03 813.15 278.72 C 754.09 278.71 695.03 278.72 635.97 278.71 C 592.72 278.61 549.45 278.93 506.22 278.55 C 491.28 233.77 491.69 185.39 497.99 139.07 C 499.03 130.54 500.98 122.13 501.80 113.57 C 504.51 113.13 507.27 113.19 510.01 113.23 C 635.70 113.26 761.39 113.21 887.08 113.26 C 887.07 141.51 887.12 169.76 887.05 198.02 C 869.63 183.77 852.44 169.23 835.10 154.88 C 832.96 153.25 831.10 150.51 828.09 150.81 C 815.05 150.45 802.00 150.14 788.96 150.20 C 767.66 149.19 746.30 149.93 724.97 149.69 C 719.98 149.45 715.04 150.40 710.06 150.20 C 666.36 150.14 622.68 151.33 578.99 151.10 C 568.86 150.84 558.67 151.65 548.59 150.65 C 545.64 154.05 544.35 158.51 542.54 162.56 C 534.37 183.00 535.31 205.83 540.05 226.96 C 540.94 228.68 542.98 229.32 544.45 230.47 C 546.37 231.53 547.97 233.42 550.23 233.75 C 563.49 234.19 576.79 233.42 590.05 234.12 C 645.71 234.34 701.38 234.64 757.05 234.94 C 766.03 234.97 775.01 234.78 783.99 235.24 C 801.42 235.16 818.85 235.31 836.28 235.50 C 847.81 248.24 867.46 247.51 879.35 259.83 C 884.78 304.05 882.12 348.66 883.95 393.06 C 884.13 391.38 884.33 389.70 884.62 388.03 C 885.03 391.70 883.95 395.34 884.42 399.02 C 886.26 428.92 891.34 459.21 904.47 486.41 C 907.02 491.53 908.34 497.14 910.39 502.48 C 918.24 524.67 927.18 547.07 928.07 570.89 C 927.93 578.30 927.46 585.93 924.60 592.88 C 915.76 618.49 907.00 644.13 898.19 669.75 C 852.83 669.77 807.46 669.83 762.10 669.72 C 767.69 655.74 773.27 641.76 778.88 627.79 C 779.07 627.51 779.45 626.95 779.64 626.68 C 793.21 623.01 806.89 619.72 820.51 616.22 C 821.55 615.87 822.84 615.69 823.31 614.53 C 830.10 603.60 837.01 592.74 843.89 581.88 C 844.30 581.08 844.66 580.26 844.98 579.42 C 834.98 570.67 825.24 561.64 815.36 552.76 C 805.84 544.51 796.99 535.43 787.05 527.70 C 761.21 555.47 737.14 584.84 714.34 615.14 C 712.79 617.44 710.55 619.43 709.65 622.09 C 707.75 637.96 705.98 653.84 704.29 669.73 C 655.72 669.79 607.15 669.85 558.58 669.70 C 560.18 655.58 563.25 641.07 570.90 628.93 C 584.40 624.41 597.99 620.13 611.47 615.57 C 642.29 558.40 683.96 507.26 709.03 446.99 C 696.34 451.12 684.10 456.56 671.77 461.66 C 636.74 476.59 602.49 493.30 567.45 508.17 C 559.02 508.88 550.49 508.12 542.02 508.29 C 536.33 508.56 530.68 507.48 524.99 507.79 C 498.64 507.62 472.28 507.44 445.94 506.87 C 444.74 506.80 443.92 507.32 443.46 508.44 C 431.22 530.99 418.88 553.50 406.57 576.01 C 410.96 591.05 422.47 602.23 431.87 614.24 C 438.72 622.84 445.58 632.58 445.95 643.99 C 446.34 653.05 441.98 661.43 436.59 668.43 C 385.72 668.89 334.86 669.71 283.99 669.78 C 288.16 657.36 293.01 645.16 296.87 632.65 C 300.41 630.74 304.29 629.61 307.88 627.81 C 317.65 623.37 326.57 617.29 334.81 610.46 C 323.73 584.39 312.84 558.16 299.82 532.97 C 299.48 531.40 297.76 532.44 297.33 533.33 C 269.98 565.90 238.94 595.40 214.24 630.16 C 212.39 632.10 213.46 634.79 214.09 637.00 C 217.41 647.85 220.37 658.80 223.74 669.64 C 179.20 669.94 134.65 669.72 90.11 669.76 C 94.47 658.18 96.98 645.97 101.87 634.59 C 105.17 626.96 110.16 619.71 117.41 615.37 C 122.16 612.42 127.64 610.91 133.14 610.19 C 154.18 582.31 174.05 553.46 191.33 523.08 C 182.40 498.94 174.84 474.29 165.29 450.37 C 148.53 450.82 136.46 464.10 121.33 469.33 C 146.47 413.95 166.34 356.35 184.21 298.27 C 185.13 294.90 186.65 291.64 186.91 288.13 C 184.86 284.38 181.38 281.64 178.81 278.24 C 170.21 268.62 162.09 258.35 156.71 246.54 C 155.41 244.08 157.62 241.63 158.38 239.34 C 161.11 234.02 163.76 227.86 168.91 224.55 C 187.17 230.15 202.44 242.19 217.43 253.56 C 217.71 253.57 218.28 253.58 218.56 253.59 C 226.34 245.82 231.66 236.06 238.29 227.36 C 240.64 224.09 243.53 221.27 245.95 218.05 C 243.70 217.07 241.66 215.16 239.06 215.31 C 206.85 215.36 174.64 215.27 142.43 215.36 C 137.72 219.66 136.37 226.06 136.71 232.20 C 126.86 234.99 116.55 233.74 106.47 233.82 C 108.27 220.01 110.36 206.23 111.84 192.38 C 125.93 193.77 139.96 191.30 153.92 189.84 C 158.34 189.53 162.78 189.72 167.21 189.61 C 167.05 183.31 166.14 177.00 163.68 171.15 C 158.00 157.10 148.31 143.98 148.23 128.24 C 160.45 127.46 172.73 127.95 184.98 127.76 C 194.32 128.27 203.67 127.42 213.01 128.04 C 219.78 127.29 226.64 128.28 233.40 127.54 C 237.39 122.74 237.55 115.38 243.07 111.77 C 246.38 111.24 249.73 111.86 253.03 112.19 C 260.32 112.67 267.65 112.36 274.92 113.13 C 295.34 113.75 315.78 113.11 336.13 111.41 C 362.47 108.77 388.81 103.61 413.27 93.25 Z" />
<path fill="#fcfdfe" d=" M 198.81 185.14 C 209.74 182.18 221.02 180.78 231.98 177.95 C 233.63 177.32 235.55 178.06 236.44 179.55 C 238.11 182.36 238.88 185.60 240.60 188.40 C 222.82 191.47 204.73 190.12 186.79 190.11 C 190.43 187.67 194.63 186.32 198.81 185.14 Z" />
<path fill="#0472b0" d=" M 945.21 628.19 C 953.68 627.57 962.28 632.32 966.11 639.94 C 970.73 648.47 969.03 660.08 961.68 666.57 C 952.72 675.49 936.28 674.52 928.43 664.61 C 922.85 658.10 921.78 648.22 925.56 640.57 C 929.08 633.19 936.98 628.06 945.21 628.19 Z" />
<path fill="#fcfdfe" d=" M 940.45 632.85 C 950.05 629.35 961.52 635.93 963.47 645.91 C 964.61 652.38 963.28 659.71 958.03 664.11 C 950.16 671.93 935.32 669.49 930.34 659.57 C 924.86 649.98 929.55 636.02 940.45 632.85 Z" />
<path fill="#0472b0" d=" M 937.45 637.44 C 942.91 637.83 948.90 636.30 953.97 638.96 C 958.51 642.71 956.60 651.65 950.21 651.98 C 951.98 655.99 954.94 659.30 956.97 663.17 C 955.89 663.22 953.72 663.31 952.64 663.36 C 950.19 659.75 948.04 655.97 945.81 652.24 C 944.35 652.18 942.90 652.14 941.47 652.11 C 941.46 655.81 941.47 659.52 941.44 663.23 C 940.45 663.24 938.47 663.26 937.47 663.27 C 937.40 654.66 937.45 646.05 937.45 637.44 Z" />
<path fill="#fcfdfe" d=" M 941.46 641.23 C 944.66 641.04 948.18 640.39 951.13 642.05 C 952.59 643.62 952.35 645.70 951.45 647.48 C 948.38 649.14 944.81 648.67 941.46 648.71 C 941.45 646.21 941.45 643.72 941.46 641.23 Z" />
<path fill="#0472b0" d=" M 204.62 766.88 C 219.01 765.26 234.96 765.97 247.06 774.87 C 257.46 782.35 261.94 795.55 262.11 807.95 C 262.12 825.98 262.10 844.01 262.11 862.04 C 262.24 876.36 262.46 891.90 254.40 904.40 C 247.95 914.69 235.53 919.06 223.94 920.03 C 211.64 921.01 198.54 920.40 187.42 914.51 C 178.15 909.65 172.45 899.93 170.33 889.94 C 167.81 879.49 168.52 868.68 168.43 858.04 C 168.43 841.37 168.44 824.70 168.43 808.03 C 168.59 798.28 171.23 788.19 177.63 780.62 C 184.25 772.55 194.49 768.33 204.62 766.88 Z" />
<path fill="#0472b0" d=" M 757.58 766.90 C 771.15 765.36 785.90 765.87 797.86 773.22 C 810.39 780.74 815.63 795.99 815.33 809.99 C 815.29 830.35 815.30 850.71 815.32 871.07 C 815.12 882.94 813.80 895.62 806.75 905.59 C 801.37 913.35 792.23 917.52 783.18 919.17 C 772.75 920.98 761.94 920.93 751.59 918.62 C 742.44 916.58 733.55 911.49 728.74 903.22 C 722.58 893.01 721.39 880.67 721.55 869.00 C 721.56 848.31 721.55 827.63 721.55 806.96 C 721.95 797.56 724.62 787.99 730.69 780.64 C 737.32 772.64 747.48 768.40 757.58 766.90 Z" />
<path fill="#0472b0" d=" M 318.16 767.11 C 330.29 765.48 343.18 765.63 354.59 770.55 C 362.77 774.06 369.62 780.64 373.10 788.87 C 376.80 797.05 377.31 806.20 377.19 815.04 C 377.19 832.03 377.18 849.02 377.19 866.01 C 377.05 878.81 376.74 892.55 369.74 903.76 C 364.32 912.86 354.04 917.83 343.86 919.37 C 331.67 921.20 318.85 920.94 307.16 916.74 C 298.49 913.61 291.35 906.73 287.92 898.17 C 284.41 889.94 283.49 880.88 283.32 872.02 C 283.29 852.36 283.32 832.69 283.30 813.03 C 282.98 802.78 284.59 792.05 290.45 783.40 C 296.62 774.09 307.36 768.81 318.16 767.11 Z" />
<path fill="#0472b0" d=" M 399.45 769.58 C 415.32 769.63 431.18 769.47 447.05 769.70 C 458.61 770.55 471.17 771.88 480.39 779.66 C 487.49 785.68 490.24 795.05 491.16 804.00 C 491.76 828.67 491.23 853.38 491.43 878.07 C 491.54 888.23 488.93 899.08 481.47 906.41 C 473.26 913.88 461.84 916.67 450.97 916.65 C 433.79 916.85 416.61 916.70 399.43 916.73 C 399.45 867.68 399.41 818.63 399.45 769.58 Z" />
<path fill="#0472b0" d=" M 66.28 916.74 C 66.28 867.68 66.22 818.63 66.31 769.57 C 93.41 769.60 120.51 769.58 147.61 769.58 C 147.59 779.47 147.73 789.36 147.53 799.25 C 131.95 799.19 116.37 799.24 100.79 799.22 C 100.77 807.89 100.76 816.56 100.79 825.23 C 115.10 825.24 129.41 825.22 143.72 825.24 C 143.72 835.06 143.74 844.88 143.71 854.70 C 129.41 854.69 115.11 854.69 100.80 854.70 C 100.73 875.37 100.81 896.05 100.76 916.73 C 89.27 916.75 77.78 916.74 66.28 916.74 Z" />
<path fill="#0472b0" d=" M 567.63 769.59 C 579.19 769.58 590.74 769.58 602.30 769.59 C 602.31 808.83 602.30 848.07 602.31 887.30 C 616.37 887.34 630.42 887.30 644.48 887.32 C 644.49 897.12 644.50 906.93 644.47 916.73 C 618.84 916.72 593.22 916.80 567.59 916.69 C 567.66 867.66 567.59 818.62 567.63 769.59 Z" />
<path fill="#0472b0" d=" M 663.29 916.73 C 663.30 867.68 663.26 818.63 663.30 769.58 C 674.89 769.60 686.48 769.55 698.07 769.60 C 698.10 818.64 698.08 867.68 698.08 916.72 C 686.48 916.76 674.88 916.73 663.29 916.73 Z" />
<path fill="#0472b0" d=" M 837.24 916.73 C 837.29 867.66 837.12 818.60 837.33 769.53 C 849.06 769.60 860.80 769.64 872.54 769.52 C 881.83 796.98 890.63 824.64 899.52 852.24 C 899.91 841.79 898.66 831.39 898.56 820.95 C 897.91 803.83 897.10 786.72 896.46 769.60 C 907.46 769.57 918.46 769.57 929.46 769.60 C 929.49 818.64 929.45 867.67 929.48 916.71 C 917.60 916.75 905.72 916.79 893.85 916.69 C 885.05 889.37 876.03 862.12 867.15 834.83 C 867.03 835.86 866.81 836.86 866.90 837.93 C 867.55 846.26 867.57 854.62 867.84 862.97 C 868.59 869.96 868.45 877.01 868.67 884.03 C 868.53 889.34 869.55 894.59 869.41 899.90 C 869.71 905.45 869.29 911.07 870.31 916.56 C 859.29 916.96 848.26 916.64 837.24 916.73 Z" />
<path fill="#fcfdfe" d=" M 328.58 792.89 C 331.73 792.59 335.33 792.99 337.68 795.34 C 341.53 798.71 342.05 804.20 342.33 809.00 C 342.35 831.32 342.35 853.65 342.34 875.97 C 342.04 880.90 341.59 886.34 338.30 890.30 C 335.47 893.92 330.09 894.38 326.04 892.83 C 321.76 891.14 319.82 886.50 318.84 882.33 C 317.39 871.95 317.81 861.45 317.76 851.00 C 318.02 835.64 317.11 820.25 318.53 804.94 C 319.09 799.43 322.46 793.31 328.58 792.89 Z" />
<path fill="#fcfdfe" d=" M 766.63 792.93 C 770.69 792.33 775.58 793.56 777.69 797.38 C 780.03 801.12 780.40 805.68 780.52 809.98 C 780.54 828.65 780.52 847.31 780.53 865.98 C 780.34 873.53 781.43 881.72 777.68 888.63 C 774.41 895.24 763.62 895.33 759.86 889.13 C 755.74 882.98 756.34 875.13 756.24 868.06 C 756.27 849.01 756.21 829.96 756.27 810.92 C 756.47 805.65 756.88 799.74 760.76 795.75 C 762.21 794.00 764.46 793.28 766.63 792.93 Z" />
<path fill="#fcfdfe" d=" M 210.52 793.71 C 215.08 791.92 221.15 792.61 224.17 796.82 C 226.85 800.62 227.23 805.49 227.44 809.99 C 227.49 831.32 227.44 852.65 227.47 873.98 C 227.40 878.96 226.93 884.17 224.55 888.64 C 221.33 894.92 211.26 895.40 207.17 889.78 C 203.71 885.33 203.23 879.42 203.23 873.99 C 203.25 852.32 203.18 830.65 203.26 808.99 C 203.40 803.31 204.76 796.28 210.52 793.71 Z" />
<path fill="#fcfdfe" d=" M 434.32 796.44 C 440.13 796.51 446.46 796.20 451.61 799.34 C 456.39 802.95 456.59 809.50 456.72 814.98 C 456.77 833.99 456.62 853.00 456.82 872.01 C 456.66 877.42 456.30 883.96 451.44 887.41 C 446.42 890.68 440.13 890.42 434.38 890.34 C 434.22 859.04 434.34 827.74 434.32 796.44 Z" />
<path fill="#fcfdfe" d=" M 0.00 927.61 C 1.22 946.51 10.62 964.76 25.42 976.61 C 36.41 985.62 50.24 991.03 64.42 992.00 L 0.00 992.00 L 0.00 927.61 Z" />
<path fill="#fcfdfe" d=" M 982.05 977.04 C 997.14 965.20 1006.75 946.77 1008.00 927.65 L 1008.00 992.00 L 943.66 992.00 C 957.58 991.02 971.17 985.78 982.05 977.04 Z" />
</svg>
