<svg xmlns="http://www.w3.org/2000/svg" height="800" width="1200" version="1.0" viewBox="-132.87405 -46.3825 1151.5751 278.295"><path d="M546.808 181.067h31.3V7.601h-31.3zm94.84 0h31.369V52.243h-31.369zm139.258-34.935c-10.352 20.093-18.51 35.444-18.966 35.444h-32.55l33.189-65.468-38.65-63.573h33.943l19.923 33.162 16.73-33.162h33.903s-15.936 31.946-32.266 63.96l39.072 65.081H802.65l-21.744-35.444M186.107 125.38l-.054-73.13h29.663c.646 23.829-.375 50.864 0 73.422 0 15.46 12.39 28.876 27.891 28.876 15.488 0 27.932-11.547 27.932-27.062l-.087-75.236h30.091c-.054 38.073-.385 45.64 0 74.197 0 31.912-26.43 57.765-58.322 57.765-31.926 0-57.113-26.906-57.113-58.832m237.113 28.061c19.903 0 36.09-16.167 36.09-36.117 0-19.937-16.187-36.09-36.09-36.09-19.937 0-36.123 16.153-36.123 36.09 0 19.95 16.186 36.117 36.123 36.117m.223-104.486c37.727 0 68.315 30.581 68.315 68.288 0 37.726-30.588 68.287-68.315 68.287-37.706 0-68.667-32.66-68.667-70.373l.07-107.637h31.308l-.217 54.185c10.902-7.363 23.393-12.75 37.509-12.75M68.165 106.85c19.862 0 35.961-16.072 35.961-35.934 0-19.835-16.099-35.927-35.96-35.927-19.822 0-35.914 16.092-35.914 35.927 0 19.862 16.092 35.934 35.913 35.934m.07-104.296c37.687 0 68.268 30.595 68.268 68.301s-30.581 68.294-68.267 68.294c-13.525 0-26.213-3.464-36.824-10.257l-.076 52.372H.015v-111.7c0-37.713 30.526-67.01 68.233-67.01m804.204 164.968c1.854 0 3.491-.196 3.491-2.39 0-1.848-1.773-2.106-3.274-2.106h-2.995v4.496zm-2.778 8.634h-2.54v-15.21h5.739c3.716 0 5.563 1.258 5.563 4.362 0 2.75-1.664 3.92-3.994 4.177l4.286 6.67h-2.71l-3.953-6.56h-2.391zm-7.928-7.635c0 6.31 4.647 10.99 10.597 10.99 5.882 0 10.522-4.68 10.522-10.99 0-6.236-4.64-10.91-10.522-10.91-5.95 0-10.597 4.674-10.597 10.91m-2.955 0c0-7.805 6.284-13.287 13.552-13.287 7.22 0 13.484 5.482 13.484 13.287 0 7.852-6.264 13.381-13.484 13.381-7.268 0-13.552-5.529-13.552-13.381M658.759 38.725c10.692 0 19.36-8.667 19.36-19.352C678.118 8.668 669.45 0 658.758 0c-10.699 0-19.4 8.668-19.4 19.373 0 10.685 8.701 19.352 19.4 19.352" fill="#3e902d"/></svg>